<svg width="28" height="28" viewBox="0 0 28 28" fill="none" xmlns="http://www.w3.org/2000/svg">
<path d="M21.5386 25.4546C21.5386 26.1575 21.7495 26.7572 22.1698 27.254C22.5902 27.7512 23.098 28 23.6931 28C24.2872 28 24.7951 27.7512 25.2154 27.254C25.6362 26.7572 25.8467 26.1575 25.8467 25.4546C25.8467 24.7517 25.6364 24.152 25.2154 23.6547C24.7951 23.158 24.2872 22.9092 23.6931 22.9092C23.098 22.9092 22.5902 23.158 22.1698 23.6547C21.7495 24.152 21.5386 24.7517 21.5386 25.4546Z" fill="white" fill-opacity="0.8"/>
<path d="M27.6802 2.92307C27.467 2.67114 27.2147 2.54514 26.923 2.54514H6.71398C6.7026 2.45244 6.67738 2.28353 6.63813 2.03829C6.59887 1.79291 6.56811 1.59746 6.54565 1.45147C6.52308 1.30611 6.48124 1.13031 6.41941 0.924836C6.3577 0.719224 6.2848 0.556657 6.2007 0.437622C6.11671 0.31796 6.00455 0.215503 5.86428 0.129065C5.72413 0.0431841 5.56418 0 5.38477 0H1.07713C0.785276 0 0.532908 0.126209 0.319792 0.377791C0.106617 0.629652 0 0.92811 0 1.27275C0 1.61738 0.106617 1.9157 0.319792 2.16756C0.533085 2.41949 0.785511 2.54535 1.07713 2.54535H4.50944L7.48764 18.9118C7.46537 18.9648 7.35038 19.2164 7.14275 19.6674C6.93523 20.1184 6.76979 20.5126 6.6465 20.8507C6.52314 21.1891 6.46143 21.4508 6.46143 21.6363C6.46143 21.9809 6.56805 22.2793 6.78111 22.5316C6.99452 22.7827 7.24683 22.9092 7.53851 22.9092H8.6154H23.6924H24.7686C25.0602 22.9092 25.3127 22.7828 25.5258 22.5316C25.7391 22.2794 25.8456 21.981 25.8456 21.6363C25.8456 21.2916 25.7391 20.9932 25.5258 20.7415C25.3128 20.4897 25.0603 20.3634 24.7686 20.3634H9.28823C9.55757 19.7269 9.69218 19.3031 9.69218 19.091C9.69218 18.958 9.67815 18.8121 9.65004 18.6534C9.62193 18.4946 9.58833 18.3187 9.54908 18.1262C9.50977 17.9345 9.48466 17.7919 9.47346 17.699L27.0412 15.273C27.3213 15.2329 27.5515 15.0909 27.731 14.8453C27.9105 14.6003 28 14.3186 28 14.0002V3.81831C27.9999 3.47367 27.8936 3.17535 27.6802 2.92307Z" fill="white" fill-opacity="0.8"/>
<path d="M6.46118 25.4546C6.46118 26.1575 6.67141 26.7572 7.09216 27.254C7.51303 27.7512 8.02042 28 8.61515 28C9.20953 28 9.71721 27.7512 10.1378 27.254C10.5585 26.7572 10.769 26.1575 10.769 25.4546C10.769 24.7517 10.5587 24.152 10.1378 23.6547C9.71715 23.158 9.20953 22.9092 8.61515 22.9092C8.02048 22.9092 7.51279 23.158 7.09216 23.6547C6.67165 24.152 6.46118 24.7517 6.46118 25.4546Z" fill="white" fill-opacity="0.8"/>
</svg>
